<svg width="36" height="34" viewBox="0 0 36 34" fill="none" xmlns="http://www.w3.org/2000/svg">
<path d="M18.6101 30.1905C18.6101 31.8417 19.9486 33.1802 21.5998 33.1802C23.251 33.1802 24.5895 31.8417 24.5895 30.1905C24.5895 28.5394 23.251 27.2008 21.5998 27.2008C19.9486 27.2008 18.6101 28.5394 18.6101 30.1905ZM9.49426 27.2008C11.1454 27.2008 12.484 28.5394 12.484 30.1905C12.484 31.8417 11.1454 33.1803 9.49426 33.1803C7.8431 33.1803 6.50455 31.8417 6.50455 30.1905C6.50457 28.5394 7.8431 27.2008 9.49426 27.2008ZM0.213955 13.1659L3.89273 24.1C3.89273 24.1 4.19725 25.7226 5.7488 25.7226C7.30035 25.7226 22.4734 25.7226 24.325 25.7226C26.1766 25.7226 26.2544 23.6887 26.2544 23.6887C26.2544 23.6887 28.2283 9.04474 28.3261 8.16004C28.4239 7.27535 29.5553 6.61962 29.5553 6.61962L34.4233 4.34567C37.0885 2.95195 35.8771 0.300113 34.4233 0.909175C28.2505 3.82108 25.3831 5.25481 25.1986 6.40179C25.0118 7.55098 24.6873 10.3184 24.6873 10.3184V10.3362C24.6495 10.3251 24.6229 10.3184 24.6229 10.3184C24.6229 10.3184 5.69323 10.3184 1.86995 10.3184C-0.877468 10.3184 0.213955 13.1703 0.213955 13.1659ZM5.53541 19.2542L5.5732 19.2564H23.5826L23.2114 22.1994H6.4112L5.53541 19.2542ZM3.7816 13.3192H24.3272L23.9316 16.4646C19.9905 16.4646 8.44953 16.4646 4.71074 16.4646L3.7816 13.3192Z" fill="#BD27E2"/>
</svg>
