<svg width="45" height="45" viewBox="0 0 45 45" fill="none" xmlns="http://www.w3.org/2000/svg">
<path d="M42 0H22.5V1.5H42C42.8284 1.5 43.5 2.17163 43.5 3V42C43.5 42.8284 42.8284 43.5 42 43.5H27V45H42C43.6567 45 45 43.6567 45 42V3C45 1.34326 43.6567 0 42 0Z" fill="white"/>
<path d="M31.5 4.5C29.5627 4.50073 27.7192 5.33276 26.4375 6.78516L27.5625 7.77832C29.391 5.7052 32.5137 5.40527 34.7036 7.09204C36.8932 8.77917 37.4 11.8751 35.8623 14.172C34.3246 16.4689 31.2689 17.1801 28.875 15.798L28.125 17.0962C30.5826 18.5145 33.6647 18.2446 35.8381 16.4205C38.0116 14.5964 38.8125 11.6082 37.842 8.94177C36.8716 6.27539 34.3374 4.50037 31.5 4.5Z" fill="white"/>
<path d="M31.5 15C33.5709 15 35.25 13.3209 35.25 11.25C35.25 9.17908 33.5709 7.5 31.5 7.5C29.4291 7.5 27.75 9.17908 27.75 11.25C27.7526 13.3202 29.4298 14.9974 31.5 15ZM31.5 9C32.7426 9 33.75 10.0074 33.75 11.25C33.75 12.4926 32.7426 13.5 31.5 13.5C30.2574 13.5 29.25 12.4926 29.25 11.25C29.25 10.0074 30.2574 9 31.5 9Z" fill="white"/>
<path d="M31.5 20.2501C26.6279 20.2332 22.3898 23.5833 21.2812 28.3276L22.7406 28.6725C23.6283 24.9335 26.792 22.1708 30.6163 21.7944C34.4407 21.4183 38.0819 23.5119 39.6812 27.0059C41.2804 30.5003 40.4843 34.6246 37.6996 37.2726C34.9153 39.9211 30.7562 40.5092 27.3464 38.7368L26.6536 40.0665C30.5193 42.0762 35.2247 41.4892 38.4789 38.5917C41.733 35.6943 42.8595 31.0884 41.3101 27.0162C39.7606 22.9439 35.8572 20.2515 31.5 20.2501Z" fill="white"/>
<path d="M31.5 36.7501C30.0242 36.7512 28.5996 36.207 27.5002 35.2223L26.4998 36.3399C29.0211 38.5943 32.7393 38.8822 35.5774 37.0431C38.4159 35.204 39.672 31.6924 38.6444 28.4704C37.6168 25.2482 34.5597 23.112 31.1807 23.2556C27.8016 23.3992 24.9368 25.7865 24.186 29.0842L25.6487 29.416C26.3467 26.3548 29.2866 24.3495 32.3914 24.8171C35.4961 25.2844 37.7153 28.0661 37.4817 31.1969C37.2477 34.328 34.6395 36.7494 31.5 36.7501Z" fill="white"/>
<path d="M40.5 3H42V4.5H40.5V3Z" fill="white"/>
<path d="M21 40.5H22.5V42H21V40.5Z" fill="white"/>
<path d="M40.5 40.5H42V42H40.5V40.5Z" fill="white"/>
<path d="M2.25 45H23.25C24.4926 45 25.5 43.9926 25.5 42.75V32.25C25.5 31.0074 24.4926 30 23.25 30H18.5076L17.1969 26.7209C17.0826 26.4364 16.8069 26.2496 16.5 26.25H9C8.69312 26.2496 8.41736 26.4364 8.3031 26.7209L6.99243 30H2.25C1.00745 30 0 31.0074 0 32.25V42.75C0 43.9926 1.00745 45 2.25 45ZM1.5 32.25C1.5 31.8358 1.83582 31.5 2.25 31.5H7.5C7.80688 31.5004 8.08264 31.3136 8.1969 31.0291L9.50757 27.75H15.9924L17.3031 31.0291C17.4174 31.3136 17.6931 31.5004 18 31.5H23.25C23.6642 31.5 24 31.8358 24 32.25V42.75C24 43.1642 23.6642 43.5 23.25 43.5H2.25C1.83582 43.5 1.5 43.1642 1.5 42.75V32.25Z" fill="white"/>
<path d="M12.75 42C15.6497 42 18 39.6497 18 36.75C18 33.8503 15.6497 31.5 12.75 31.5C9.85034 31.5 7.5 33.8503 7.5 36.75C7.5033 39.6482 9.85181 41.9967 12.75 42ZM12.75 33C14.8209 33 16.5 34.6791 16.5 36.75C16.5 38.8209 14.8209 40.5 12.75 40.5C10.6791 40.5 9 38.8209 9 36.75C9.00256 34.6798 10.6798 33.0026 12.75 33Z" fill="white"/>
<path d="M3.75 33H5.25V34.5H3.75V33Z" fill="white"/>
<path d="M19.5 33H22.5V34.5H19.5V33Z" fill="white"/>
<path d="M0.75 18H3.06006C3.39441 20.2994 5.20056 22.1056 7.5 22.4399V22.5C7.5 23.7426 8.50745 24.75 9.75 24.75C10.9926 24.75 12 23.7426 12 22.5V12C12 10.7574 10.9926 9.75 9.75 9.75C8.50745 9.75 7.5 10.7574 7.5 12V12.0601C6.35962 12.2238 5.3053 12.7588 4.5 13.5824V13.5C4.5 8.52942 8.52942 4.5 13.5 4.5C18.4706 4.5 22.5 8.52942 22.5 13.5V13.5824C21.6947 12.7588 20.6404 12.2238 19.5 12.0601V12C19.5 10.7574 18.4926 9.75 17.25 9.75C16.0074 9.75 15 10.7574 15 12V22.5C15 23.7426 16.0074 24.75 17.25 24.75C18.4926 24.75 19.5 23.7426 19.5 22.5V22.4399C21.7994 22.1056 23.6056 20.2994 23.9399 18H26.25C26.6642 18 27 17.6642 27 17.25V13.5C27 6.04431 20.9557 0 13.5 0C6.04431 0 0 6.04431 0 13.5V17.25C0 17.6642 0.335815 18 0.75 18ZM9 21.75V12C9 11.5858 9.33582 11.25 9.75 11.25C10.1642 11.25 10.5 11.5858 10.5 12V22.5C10.5 22.9142 10.1642 23.25 9.75 23.25C9.33582 23.25 9 22.9142 9 22.5V21.75ZM18 12.75V22.5C18 22.9142 17.6642 23.25 17.25 23.25C16.8358 23.25 16.5 22.9142 16.5 22.5V12C16.5 11.5858 16.8358 11.25 17.25 11.25C17.6642 11.25 18 11.5858 18 12V12.75ZM19.5 20.9249V13.5751C21.2479 13.9299 22.5037 15.4666 22.5037 17.25C22.5037 19.0334 21.2479 20.5701 19.5 20.9249ZM7.5 13.5751V20.9249C5.75208 20.5701 4.49634 19.0334 4.49634 17.25C4.49634 15.4666 5.75208 13.9299 7.5 13.5751ZM1.5 13.5C1.5 6.87268 6.87268 1.5 13.5 1.5C20.1273 1.5 25.5 6.87268 25.5 13.5V16.5H24V13.5C24 7.70105 19.299 3 13.5 3C7.70105 3 3 7.70105 3 13.5V16.5H1.5V13.5Z" fill="white"/>
</svg>
